<?xml version="1.0" standalone="no"?><!DOCTYPE svg PUBLIC "-//W3C//DTD SVG 1.1//EN" "http://www.w3.org/Graphics/SVG/1.1/DTD/svg11.dtd"><svg class="icon" width="200px" height="200.00px" viewBox="0 0 1024 1024" version="1.1" xmlns="http://www.w3.org/2000/svg"><path d="M512 512m-512 0a512 512 0 1 0 1024 0 512 512 0 1 0-1024 0Z" fill="#0066FF" /><path d="M409.2 889.8c-73.5 0-142.5-28.6-194.5-80.6s-80.6-121-80.6-194.5 28.6-142.5 80.6-194.5 121-80.6 194.5-80.6 142.5 28.6 194.5 80.6 80.6 121 80.6 194.5-28.6 142.5-80.6 194.5c-51.9 52-121 80.6-194.5 80.6z m0-470.1c-52.1 0-101.1 20.3-137.9 57.1-76.1 76.1-76.1 199.8 0 275.9 36.8 36.8 85.8 57.1 137.9 57.1s101.1-20.3 137.9-57.1c76.1-76.1 76.1-199.8 0-275.9-36.8-36.8-85.8-57.1-137.9-57.1z" fill="#FFFFFF" /><path d="M617.5 473.1l-66.6-66.6L749.5 208c18.4-18.4 48.2-18.4 66.6 0 18.4 18.4 18.4 48.2 0 66.6L617.5 473.1z" fill="#FFFFFF" /><path d="M782.8 434.2c-26 0-47.1-21.1-47.1-47.1V241.2c0-26 21.1-47.1 47.1-47.1s47.1 21.1 47.1 47.1v145.9c-0.1 26-21.1 47.1-47.1 47.1z" fill="#FFFFFF" /><path d="M589.8 241.2c0 26 21.1 47.1 47.1 47.1h145.9c26 0 47.1-21.1 47.1-47.1s-21.1-47.1-47.1-47.1H636.9c-26 0.1-47.1 21.1-47.1 47.1z" fill="#FFFFFF" /></svg>