<?xml version="1.0" standalone="no"?><!DOCTYPE svg PUBLIC "-//W3C//DTD SVG 1.1//EN" "http://www.w3.org/Graphics/SVG/1.1/DTD/svg11.dtd"><svg class="icon" width="200px" height="200.00px" viewBox="0 0 1024 1024" version="1.1" xmlns="http://www.w3.org/2000/svg"><path d="M512 512m-512 0a512 512 0 1 0 1024 0 512 512 0 1 0-1024 0Z" fill="#FF89B5" /><path d="M574.464 644.096c-45.056 0-86.016-15.36-118.784-40.96l-53.248 53.248 68.608 68.608a24.128 24.128 0 0 1 0 33.792 24.128 24.128 0 0 1-33.792 0L368.64 690.176l-71.68 70.656a24.128 24.128 0 0 1-33.792 0 24.128 24.128 0 0 1 0-33.792l70.656-71.68L266.24 586.752a24.128 24.128 0 0 1 0-33.792 24.128 24.128 0 0 1 33.792 0L368.64 621.568l53.248-53.248a191.808 191.808 0 0 1-40.96-118.784C379.904 343.04 466.944 256 574.464 256A194.048 194.048 0 0 1 768 449.536c0 106.496-87.04 194.56-193.536 194.56z m0-339.968a145.92 145.92 0 0 0-145.408 145.408c0 36.864 14.336 70.656 36.864 96.256 2.048 1.024 5.12 3.072 7.168 5.12s3.072 4.096 5.12 7.168c25.6 22.528 59.392 36.864 96.256 36.864a145.92 145.92 0 0 0 145.408-145.408 145.92 145.92 0 0 0-145.408-145.408z" fill="#FFFFFF" /></svg>